HIERARCHY
ROOT Hips
{
	OFFSET 0.000000 0.000000 0.000000
	CHANNELS 6 Xposition Yposition Zposition Zrotation Yrotation Xrotation 
	JOINT LHipJoint
	{
		OFFSET 0.000000 0.000000 0.000000
		CHANNELS 3 Zrotation Yrotation Xrotation
		JOINT LeftUpLeg
		{
			OFFSET 1.363060 -1.794630 0.839290
			CHANNELS 3 Zrotation Yrotation Xrotation
			JOINT LeftLeg
			{
				OFFSET 2.448110 -6.726130 0.000000
				CHANNELS 3 Zrotation Yrotation Xrotation
				JOINT LeftFoot
				{
					OFFSET 2.562200 -7.039590 0.000000
					CHANNELS 3 Zrotation Yrotation Xrotation
					JOINT LeftToeBase
					{
						OFFSET 0.157640 -0.433110 2.322550
						CHANNELS 3 Zrotation Yrotation Xrotation
						End Site
						{
							OFFSET 0.000000 0.000000 0.000000
						}
					}
				}
			}
		}
	}
	JOINT RHipJoint
	{
		OFFSET 0.000000 0.000000 0.000000
		CHANNELS 3 Zrotation Yrotation Xrotation
		JOINT RightUpLeg
		{
			OFFSET -1.305520 -1.794630 0.839290
			CHANNELS 3 Zrotation Yrotation Xrotation
			JOINT RightLeg
			{
				OFFSET -2.542530 -6.985550 0.000000
				CHANNELS 3 Zrotation Yrotation Xrotation
				JOINT RightFoot
				{
					OFFSET -2.568260 -7.056230 0.000000
					CHANNELS 3 Zrotation Yrotation Xrotation
					JOINT RightToeBase
					{
						OFFSET -0.164730 -0.452590 2.363150
						CHANNELS 3 Zrotation Yrotation Xrotation
						End Site
						{
							OFFSET 0.000000 0.000000 0.000000
						}
					}
				}
			}
		}
	}
	JOINT LowerBack
	{
		OFFSET 0.000000 0.000000 0.000000
		CHANNELS 3 Zrotation Yrotation Xrotation
		JOINT Spine
		{
			OFFSET 0.028270 2.035590 -0.193380
			CHANNELS 3 Zrotation Yrotation Xrotation
			JOINT Spine1
			{
				OFFSET 0.056720 2.048850 -0.042750
				CHANNELS 3 Zrotation Yrotation Xrotation
				JOINT Neck
				{
					OFFSET 0.000000 0.000000 0.000000
					CHANNELS 3 Zrotation Yrotation Xrotation
					JOINT Neck1
					{
						OFFSET -0.054170 1.746240 0.172020
						CHANNELS 3 Zrotation Yrotation Xrotation
						JOINT Head
						{
							OFFSET 0.104070 1.761360 -0.123970
							CHANNELS 3 Zrotation Yrotation Xrotation
							End Site
							{
								OFFSET 0.000000 0.000000 0.000000
							}
						}
					}
				}
				JOINT LeftShoulder
				{
					OFFSET 0.000000 0.000000 0.000000
					CHANNELS 3 Zrotation Yrotation Xrotation
					JOINT LeftArm
					{
						OFFSET 3.362410 1.200890 -0.311210
						CHANNELS 3 Zrotation Yrotation Xrotation
						JOINT LeftForeArm
						{
							OFFSET 4.983000 -0.000000 -0.000000
							CHANNELS 3 Zrotation Yrotation Xrotation
							JOINT LeftHand
							{
								OFFSET 3.483560 -0.000000 -0.000000
								CHANNELS 3 Zrotation Yrotation Xrotation
								JOINT LeftFingerBase
								{
									OFFSET 0.000000 0.000000 0.000000
									CHANNELS 3 Zrotation Yrotation Xrotation
									JOINT LeftHandIndex1
									{
										OFFSET 0.715260 -0.000000 -0.000000
										CHANNELS 3 Zrotation Yrotation Xrotation
										End Site
										{
											OFFSET 0.000000 0.000000 0.000000
										}
									}
								}
								JOINT LThumb
								{
									OFFSET 0.000000 0.000000 0.000000
									CHANNELS 3 Zrotation Yrotation Xrotation
									End Site
									{
										OFFSET 0.000000 0.000000 0.000000
									}
								}
							}
						}
					}
				}
				JOINT RightShoulder
				{
					OFFSET 0.000000 0.000000 0.000000
					CHANNELS 3 Zrotation Yrotation Xrotation
					JOINT RightArm
					{
						OFFSET -3.136600 1.374050 -0.404650
						CHANNELS 3 Zrotation Yrotation Xrotation
						JOINT RightForeArm
						{
							OFFSET -5.241900 -0.000000 -0.000000
							CHANNELS 3 Zrotation Yrotation Xrotation
							JOINT RightHand
							{
								OFFSET -3.444170 -0.000000 -0.000000
								CHANNELS 3 Zrotation Yrotation Xrotation
								JOINT RightFingerBase
								{
									OFFSET 0.000000 0.000000 0.000000
									CHANNELS 3 Zrotation Yrotation Xrotation
									JOINT RightHandIndex1
									{
										OFFSET -0.622530 -0.000000 -0.000000
										CHANNELS 3 Zrotation Yrotation Xrotation
										End Site
										{
											OFFSET 0.000000 0.000000 0.000000
										}
									}
								}
								JOINT RThumb
								{
									OFFSET 0.000000 0.000000 0.000000
									CHANNELS 3 Zrotation Yrotation Xrotation
									End Site
									{
										OFFSET 0.000000 0.000000 0.000000
									}
								}
							}
						}
					}
				}
			}
		}
	}
}
MOTION
Frames: 9
Frame Time: 0.008333
-20.613029 16.310268 -0.747926 3.287515 84.303804 18.637692 -9.658983 -0.415922 4.021294 -8.694300 -5.014672 -51.676055 -1.152177 1.785740 42.358439 1.896640 7.503472 -12.313086 -0.461700 0.000000 -15.124100 9.796671 -4.832632 0.380979 3.032196 -5.068671 7.624494 1.550766 -1.587952 19.322737 0.767511 9.059154 8.380631 2.101300 0.000000 -84.011399 -7.578188 2.589592 -5.617424 -2.362135 3.002016 -4.374448 -5.102931 2.859884 -0.504777 6.737873 -2.877335 -9.258642 -2.317513 -0.158781 -0.500410 0.000000 0.000000 0.000000 -3.363389 16.233488 3.052180 -43.477940 23.619929 16.439366 -5.578808 -10.760633 -0.028725 -1.521385 7.615256 -0.089975 -0.193425 -0.089142 -0.000000 0.000000 0.000000 0.000000 0.000000 0.000000 0.000000 6.810125 5.515303 1.465815 47.490927 43.179526 25.326884 0.652904 72.516856 -0.004853 -1.040372 6.952627 -0.067301 0.012529 -0.474590 -0.000000 0.000000 0.000000 0.000000 0.000000 0.000000 0.000000 
-20.423597 16.305059 -0.763032 5.328906 84.228068 20.239590 -9.683965 -0.385637 3.785823 -9.306501 -4.505993 -50.841909 -1.161630 1.831916 43.361591 1.897478 7.495938 -12.956913 -0.588800 -0.000000 -14.939800 9.998718 -4.929325 0.271019 2.250077 -5.703590 6.676488 1.254793 -1.894898 22.358004 0.660338 9.294002 10.675809 2.561300 -0.000000 -85.613500 -7.874768 2.515091 -5.337710 -2.441883 2.953263 -4.359528 -5.248858 2.812321 -0.648763 6.995706 -2.671257 -9.187056 -2.445358 -0.169489 -0.490696 0.000000 0.000000 0.000000 -3.716136 15.770006 3.103440 -44.103681 22.379244 15.672043 -5.584992 -9.678163 -0.026491 -1.058162 7.373750 -0.057063 -0.189593 -0.078463 -0.000000 0.000000 0.000000 0.000000 0.000000 0.000000 0.000000 7.459051 5.812236 1.492821 49.178200 41.497294 25.982641 0.716538 71.744691 -0.005636 -1.368081 6.869382 -0.088213 0.025673 -0.466960 -0.000000 0.000000 0.000000 0.000000 0.000000 0.000000 0.000000 
-20.238949 16.297744 -0.777406 7.850871 84.187286 22.283079 -9.688233 -0.353362 3.519121 -10.008157 -3.935051 -49.932369 -1.187530 1.866514 44.299808 1.878472 7.372854 -13.627893 -0.715200 0.000000 -14.886200 10.246199 -4.996790 0.131704 1.381417 -6.497424 5.566240 0.942748 -2.184704 25.666063 0.502841 9.318641 12.943234 2.988201 -0.000000 -86.218600 -8.191041 2.412597 -4.986563 -2.523206 2.877652 -4.334948 -5.398125 2.737999 -0.813869 7.257195 -2.422089 -9.093710 -2.583944 -0.181165 -0.476919 0.000000 0.000000 0.000000 -4.073533 15.249697 3.168677 -44.773333 21.036851 14.895574 -5.585317 -8.541560 -0.024355 -0.546913 7.160888 -0.023348 -0.184760 -0.066538 -0.000000 0.000000 0.000000 0.000000 0.000000 0.000000 0.000000 8.154059 6.133013 1.509067 50.825123 39.732664 26.523512 0.777216 70.872168 -0.007041 -1.774143 6.840048 -0.114435 0.038523 -0.460232 -0.000000 0.000000 0.000000 0.000000 0.000000 0.000000 0.000000 
-20.058692 16.288107 -0.791338 10.701826 84.167702 24.627790 -9.667151 -0.312125 3.229743 -10.775042 -3.309898 -48.955516 -1.226889 1.889135 45.161497 1.844066 7.149708 -14.321732 -0.836100 -0.000000 -14.954700 10.533336 -5.025302 -0.029059 0.459751 -7.395728 4.317115 0.628902 -2.450704 29.203971 0.297031 9.013684 15.080603 3.296500 -0.000000 -85.723500 -8.509077 2.287979 -4.579656 -2.602591 2.779015 -4.302099 -5.549223 2.640489 -0.993799 7.519007 -2.136462 -8.979881 -2.730857 -0.193588 -0.459164 0.000000 0.000000 0.000000 -4.432957 14.686642 3.245164 -45.481316 19.586634 14.121657 -5.577252 -7.379931 -0.022358 0.009179 6.973766 0.011170 -0.178803 -0.053470 -0.000000 0.000000 0.000000 0.000000 0.000000 0.000000 0.000000 8.884987 6.468193 1.515215 52.432843 37.901420 26.941556 0.834699 69.875881 -0.008819 -2.221905 6.876529 -0.144270 0.050247 -0.454202 -0.000000 0.000000 0.000000 0.000000 0.000000 0.000000 0.000000 
-19.882795 16.276193 -0.804935 13.796465 84.158168 27.198794 -9.615330 -0.255617 2.928294 -11.589331 -2.650000 -47.917276 -1.276795 1.899256 45.933562 1.800519 6.852755 -15.034626 -0.948500 -0.000001 -15.126700 10.855399 -5.009070 -0.205330 -0.490623 -8.354105 2.949535 0.327096 -2.693132 32.930040 0.050524 8.282467 16.966380 3.393600 0.000001 -84.085001 -8.820998 2.146151 -4.133945 -2.678841 2.661268 -4.261644 -5.701479 2.523516 -1.177913 7.784958 -1.840700 -8.851552 -2.884086 -0.206519 -0.438802 0.000000 0.000000 0.000000 -4.787816 14.089103 3.327946 -46.224414 18.026305 13.330561 -5.558775 -6.223303 -0.020524 0.611405 6.801801 0.046391 -0.171632 -0.039440 -0.000000 0.000000 0.000000 0.000000 0.000000 0.000000 0.000000 9.657742 6.787506 1.516582 53.993031 36.045025 27.244056 0.890066 68.725492 -0.010733 -2.680372 6.985573 -0.176721 0.060349 -0.448519 -0.000000 0.000000 0.000000 0.000000 0.000000 0.000000 0.000000 
-19.710447 16.262291 -0.818850 16.890370 84.140122 29.763278 -9.537978 -0.177951 2.625838 -12.412157 -1.964523 -46.833734 -1.334519 1.900858 46.613373 1.753194 6.505218 -15.768011 -1.050900 -0.000000 -15.378200 11.193152 -4.944349 -0.390987 -1.416023 -9.307777 1.492196 0.046298 -2.916166 36.792218 -0.225913 7.043936 18.470414 3.193300 0.000000 -81.382400 -9.103375 1.997487 -3.667704 -2.747266 2.532959 -4.215866 -5.852686 2.395200 -1.360785 8.045131 -1.535822 -8.711003 -3.039472 -0.219588 -0.415889 0.000000 0.000000 0.000000 -5.143185 13.482676 3.412685 -46.992068 16.337698 12.566589 -5.526757 -5.100231 -0.018845 1.258229 6.624681 0.082217 -0.163177 -0.024854 -0.000000 0.000000 0.000000 0.000000 0.000000 0.000000 0.000000 10.441938 7.089771 1.509436 55.533442 34.153934 27.402467 0.943593 67.399395 -0.012445 -3.095624 7.166249 -0.209091 0.067869 -0.442706 -0.000000 0.000000 0.000000 0.000000 0.000000 0.000000 0.000000 
-19.541175 16.246925 -0.833387 19.881820 84.106805 32.229842 -9.440000 -0.078095 2.333075 -13.218925 -1.277328 -45.714297 -1.397643 1.896120 47.196165 1.708035 6.137260 -16.521520 -1.143900 -0.000000 -15.678300 11.532838 -4.834405 -0.582272 -2.284324 -10.218152 -0.038273 -0.210003 -3.128853 40.743154 -0.520837 5.287598 19.472671 2.658900 -0.000000 -77.793899 -9.349116 1.847183 -3.197294 -2.806838 2.399045 -4.165932 -6.002277 2.260273 -1.533730 8.299539 -1.245625 -8.564707 -3.194474 -0.232523 -0.391704 0.000000 0.000000 0.000000 -5.500321 12.873957 3.493223 -47.777101 14.522458 11.817705 -5.479547 -4.043993 -0.017308 1.955269 6.419962 0.118149 -0.153413 -0.010155 -0.000000 0.000000 0.000000 0.000000 0.000000 0.000000 0.000000 11.233839 7.348149 1.497375 57.057606 32.253901 27.407088 0.996852 65.870052 -0.013758 -3.439499 7.413557 -0.239678 0.072579 -0.436255 -0.000000 0.000000 0.000000 0.000000 0.000000 0.000000 0.000000 
-19.374275 16.230890 -0.848957 22.673853 84.056786 34.511528 -9.330303 0.041403 2.059010 -13.984037 -0.613121 -44.569265 -1.463872 1.887676 47.682063 1.669981 5.776943 -17.295077 -1.229900 -0.000000 -15.993701 11.859186 -4.686446 -0.775761 -3.061593 -11.051092 -1.628581 -0.444042 -3.340612 44.732392 -0.823808 3.068470 19.880742 1.817900 0.000000 -73.574600 -9.549571 1.699597 -2.736881 -2.856061 2.263759 -4.113241 -6.149135 2.122782 -1.690862 8.543166 -0.979267 -8.417240 -3.345859 -0.245011 -0.366961 0.000000 0.000000 0.000000 -5.862511 12.277785 3.564719 -48.570991 12.572296 11.103329 -5.415504 -3.083177 -0.015901 2.706807 6.162717 0.152986 -0.142358 0.004136 -0.000000 0.000000 0.000000 0.000000 0.000000 0.000000 0.000000 12.015068 7.550950 1.479325 58.582058 30.345205 27.224508 1.050587 64.119442 -0.014526 -3.686534 7.717582 -0.266586 0.074256 -0.428672 -0.000000 0.000000 0.000000 0.000000 0.000000 0.000000 0.000000 
-19.209296 16.215083 -0.865582 25.283801 83.994416 36.635580 -9.212667 0.176357 1.811087 -14.698416 -0.004992 -43.403496 -1.531235 1.876054 48.068248 1.643782 5.453997 -18.084477 -1.312700 -0.000000 -16.290600 12.166686 -4.510136 -0.967888 -3.733890 -11.789744 -3.274717 -0.661458 -3.559511 48.710048 -1.125458 0.515111 19.644996 0.768100 -0.000000 -68.985900 -9.707951 1.555212 -2.298951 -2.896174 2.128342 -4.058781 -6.293737 1.983972 -1.826043 8.778599 -0.760074 -8.274442 -3.491719 -0.256858 -0.342838 0.000000 0.000000 0.000000 -6.229926 11.687273 3.622020 -49.366930 10.504206 10.399475 -5.334372 -2.251916 -0.014614 3.521307 5.827710 0.185128 -0.130045 0.017489 -0.000000 0.000000 0.000000 0.000000 0.000000 0.000000 0.000000 12.786617 7.670606 1.459666 60.106391 28.452241 26.837424 1.106364 62.129845 -0.014774 -3.842238 8.065445 -0.289211 0.073395 -0.419535 -0.000000 0.000000 0.000000 0.000000 0.000000 0.000000 0.000000 
